<?xml version="1.0" encoding="utf-8"?>
<!-- Generator: Adobe Illustrator 15.1.0, SVG Export Plug-In  -->
<!DOCTYPE svg PUBLIC "-//W3C//DTD SVG 1.1//EN" "http://www.w3.org/Graphics/SVG/1.1/DTD/svg11.dtd" [
	<!ENTITY ns_flows "http://ns.adobe.com/Flows/1.0/">
]>
<svg version="1.1"
	 xmlns="http://www.w3.org/2000/svg" xmlns:xlink="http://www.w3.org/1999/xlink" xmlns:a="http://ns.adobe.com/AdobeSVGViewerExtensions/3.0/"
	 x="0px" y="0px" width="155px" height="154px" viewBox="10 10 155 154" overflow="visible" enable-background="new 10 10 155 154"
	 xml:space="preserve">
<defs>
</defs>
<g>
	<defs>
		<polygon id="SVGID_33_" points="11,12 11,162 11,163 12,163 62,163 63,163 63,162 63,12 63,11 62,11 12,11 11,11 		"/>
	</defs>
	<clipPath id="SVGID_35_">
		<use xlink:href="#SVGID_33_"  overflow="visible"/>
	</clipPath>
	<g clip-path="url(#SVGID_35_)">
		<defs>
			<rect id="SVGID_34_" x="10" y="10" width="155" height="154"/>
		</defs>
		<clipPath id="SVGID_36_">
			<use xlink:href="#SVGID_34_"  overflow="visible"/>
		</clipPath>
		<rect x="7" y="7" clip-path="url(#SVGID_36_)" fill-rule="evenodd" clip-rule="evenodd" fill="#D4F4A9" width="60" height="160"/>
	</g>
</g>
<g>
	<defs>
		<path id="SVGID_31_" d="M12,12v150h50V12H12z M0,0h74v174H0V0z"/>
	</defs>
	<clipPath id="SVGID_37_">
		<use xlink:href="#SVGID_31_"  overflow="visible"/>
	</clipPath>
	<g clip-path="url(#SVGID_37_)">
		<defs>
			<rect id="SVGID_32_" x="10" y="10" width="155" height="154"/>
		</defs>
		<clipPath id="SVGID_38_">
			<use xlink:href="#SVGID_32_"  overflow="visible"/>
		</clipPath>
		
			<rect x="12" y="12" clip-path="url(#SVGID_38_)" fill="none" stroke="#000000" stroke-width="4" stroke-miterlimit="10" width="50" height="150"/>
	</g>
</g>
<g>
	<defs>
		<polygon id="SVGID_29_" points="62,12 62,162 62,163 63,163 113,163 114,163 114,162 114,12 114,11 113,11 63,11 62,11 		"/>
	</defs>
	<clipPath id="SVGID_39_">
		<use xlink:href="#SVGID_29_"  overflow="visible"/>
	</clipPath>
	<g clip-path="url(#SVGID_39_)">
		<defs>
			<rect id="SVGID_30_" x="10" y="10" width="155" height="154"/>
		</defs>
		<clipPath id="SVGID_40_">
			<use xlink:href="#SVGID_30_"  overflow="visible"/>
		</clipPath>
		
			<rect x="58" y="7" opacity="0.2761" clip-path="url(#SVGID_40_)" fill-rule="evenodd" clip-rule="evenodd" fill="#D4D4D4" width="60" height="160"/>
	</g>
</g>
<g>
	<defs>
		<path id="SVGID_27_" d="M63,12v150h50V12H63z M51,0h74v174H51V0z"/>
	</defs>
	<clipPath id="SVGID_41_">
		<use xlink:href="#SVGID_27_"  overflow="visible"/>
	</clipPath>
	<g clip-path="url(#SVGID_41_)">
		<defs>
			<rect id="SVGID_28_" x="10" y="10" width="155" height="154"/>
		</defs>
		<clipPath id="SVGID_42_">
			<use xlink:href="#SVGID_28_"  overflow="visible"/>
		</clipPath>
		
			<rect x="63" y="12" clip-path="url(#SVGID_42_)" fill="none" stroke="#000000" stroke-width="4" stroke-miterlimit="10" width="50" height="150"/>
	</g>
</g>
<g>
	<defs>
		<polygon id="SVGID_25_" points="112,12 112,162 112,163 113,163 163,163 164,163 164,162 164,12 164,11 163,11 113,11 112,11 		
			"/>
	</defs>
	<clipPath id="SVGID_43_">
		<use xlink:href="#SVGID_25_"  overflow="visible"/>
	</clipPath>
	<g clip-path="url(#SVGID_43_)">
		<defs>
			<rect id="SVGID_26_" x="10" y="10" width="155" height="154"/>
		</defs>
		<clipPath id="SVGID_44_">
			<use xlink:href="#SVGID_26_"  overflow="visible"/>
		</clipPath>
		
			<rect x="108" y="7" clip-path="url(#SVGID_44_)" fill-rule="evenodd" clip-rule="evenodd" fill="#D4F4A9" width="60" height="160"/>
	</g>
</g>
<g>
	<defs>
		<path id="SVGID_23_" d="M113,12v150h50V12H113z M101,0h74v174h-74V0z"/>
	</defs>
	<clipPath id="SVGID_45_">
		<use xlink:href="#SVGID_23_"  overflow="visible"/>
	</clipPath>
	<g clip-path="url(#SVGID_45_)">
		<defs>
			<rect id="SVGID_24_" x="10" y="10" width="155" height="154"/>
		</defs>
		<clipPath id="SVGID_46_">
			<use xlink:href="#SVGID_24_"  overflow="visible"/>
		</clipPath>
		
			<rect x="113" y="12" clip-path="url(#SVGID_46_)" fill="none" stroke="#000000" stroke-width="4" stroke-miterlimit="10" width="50" height="150"/>
	</g>
</g>
<g>
	<defs>
		<rect id="SVGID_22_" x="15" y="91" width="58" height="60"/>
	</defs>
	<clipPath id="SVGID_47_">
		<use xlink:href="#SVGID_22_"  overflow="visible"/>
	</clipPath>
	<g clip-path="url(#SVGID_47_)">
		<image overflow="visible" width="58" height="60" xlink:href="62C96AE6.png"  transform="matrix(1 0 0 1 15 91)">
		</image>
	</g>
</g>
<g>
	<defs>
		<rect id="SVGID_18_" x="10" y="10" width="155" height="154"/>
	</defs>
	<clipPath id="SVGID_48_">
		<use xlink:href="#SVGID_18_"  overflow="visible"/>
	</clipPath>
	<g clip-path="url(#SVGID_48_)" enable-background="new    ">
		<g>
			<defs>
				<rect id="SVGID_19_" x="17" y="92" width="54" height="56"/>
			</defs>
			<clipPath id="SVGID_49_">
				<use xlink:href="#SVGID_19_"  overflow="visible"/>
			</clipPath>
			<g clip-path="url(#SVGID_49_)">
				<defs>
					
						<ellipse id="SVGID_20_" transform="matrix(-0.809 0.5878 -0.5878 -0.809 149.9311 191.4251)" cx="43.867" cy="120.07" rx="22.647" ry="24.846"/>
				</defs>
				<clipPath id="SVGID_50_">
					<use xlink:href="#SVGID_20_"  overflow="visible"/>
				</clipPath>
				<g clip-path="url(#SVGID_50_)">
					<defs>
						<rect id="SVGID_21_" x="17" y="92" width="54" height="56"/>
					</defs>
					<clipPath id="SVGID_51_">
						<use xlink:href="#SVGID_21_"  overflow="visible"/>
					</clipPath>
					
						<rect x="14.021" y="92.423" transform="matrix(-0.5878 -0.809 0.809 -0.5878 -27.488 226.1347)" clip-path="url(#SVGID_51_)" fill-rule="evenodd" clip-rule="evenodd" width="59.692" height="55.294"/>
				</g>
			</g>
		</g>
	</g>
</g>
<g>
	<defs>
		
			<rect id="SVGID_16_" x="95.482" y="14.402" transform="matrix(-0.6691 -0.7431 0.7431 -0.6691 117.4456 190.8714)" width="11.462" height="109.777"/>
	</defs>
	<clipPath id="SVGID_52_">
		<use xlink:href="#SVGID_16_"  overflow="visible"/>
	</clipPath>
	<g clip-path="url(#SVGID_52_)">
		<defs>
			<rect id="SVGID_17_" x="10" y="10" width="155" height="154"/>
		</defs>
		<clipPath id="SVGID_53_">
			<use xlink:href="#SVGID_17_"  overflow="visible"/>
		</clipPath>
		
			<rect x="41.324" y="58.56" transform="matrix(-0.7431 0.6691 -0.6691 -0.7431 222.7934 53.0595)" clip-path="url(#SVGID_53_)" fill-rule="evenodd" clip-rule="evenodd" width="119.778" height="21.462"/>
	</g>
</g>
<g>
	<defs>
		<path id="SVGID_14_" d="M107.304,70.592l7.715,6.093l7.237-6.093l-7.237-10.296c1.819-1.124,4.771-2.474,4.771-2.474l7.528,4.736
			c0,0,2.967-12.301,2.546-13.463c-0.885-2.442,0-1.703,0-1.703l3.536,0.835c1.226,0.289,3.677,0.868,3.677,0.868l8.694-13.49"/>
	</defs>
	<clipPath id="SVGID_54_">
		<use xlink:href="#SVGID_14_"  overflow="visible"/>
	</clipPath>
	<g clip-path="url(#SVGID_54_)">
		<defs>
			<rect id="SVGID_15_" x="10" y="10" width="155" height="154"/>
		</defs>
		<clipPath id="SVGID_55_">
			<use xlink:href="#SVGID_15_"  overflow="visible"/>
		</clipPath>
		
			<rect x="102.304" y="30.605" clip-path="url(#SVGID_55_)" fill-rule="evenodd" clip-rule="evenodd" width="48.468" height="51.08"/>
	</g>
</g>
<g>
	<defs>
		<rect id="SVGID_13_" x="101" y="91" width="58" height="60"/>
	</defs>
	<clipPath id="SVGID_56_">
		<use xlink:href="#SVGID_13_"  overflow="visible"/>
	</clipPath>
	<g clip-path="url(#SVGID_56_)">
		<image overflow="visible" width="58" height="60" xlink:href="62C96AEA.png"  transform="matrix(1 0 0 1 101 91)">
		</image>
	</g>
</g>
<g>
	<defs>
		<rect id="SVGID_9_" x="10" y="10" width="155" height="154"/>
	</defs>
	<clipPath id="SVGID_57_">
		<use xlink:href="#SVGID_9_"  overflow="visible"/>
	</clipPath>
	<g clip-path="url(#SVGID_57_)" enable-background="new    ">
		<g>
			<defs>
				<rect id="SVGID_10_" x="103" y="92" width="54" height="56"/>
			</defs>
			<clipPath id="SVGID_58_">
				<use xlink:href="#SVGID_10_"  overflow="visible"/>
			</clipPath>
			<g clip-path="url(#SVGID_58_)">
				<defs>
					
						<ellipse id="SVGID_11_" transform="matrix(0.809 0.5878 -0.5878 0.809 95.4286 -53.559)" cx="130.133" cy="120.07" rx="22.647" ry="24.846"/>
				</defs>
				<clipPath id="SVGID_59_">
					<use xlink:href="#SVGID_11_"  overflow="visible"/>
				</clipPath>
				<g clip-path="url(#SVGID_59_)">
					<defs>
						<rect id="SVGID_12_" x="103" y="92" width="54" height="56"/>
					</defs>
					<clipPath id="SVGID_60_">
						<use xlink:href="#SVGID_12_"  overflow="visible"/>
					</clipPath>
					
						<rect x="100.287" y="92.423" transform="matrix(0.5878 -0.809 0.809 0.5878 -43.4964 154.7731)" clip-path="url(#SVGID_60_)" fill-rule="evenodd" clip-rule="evenodd" width="59.693" height="55.294"/>
				</g>
			</g>
		</g>
	</g>
</g>
<g>
	<defs>
		
			<rect id="SVGID_7_" x="67.056" y="14.403" transform="matrix(0.6692 -0.7431 0.7431 0.6692 -27.4106 77.0134)" width="11.462" height="109.777"/>
	</defs>
	<clipPath id="SVGID_61_">
		<use xlink:href="#SVGID_7_"  overflow="visible"/>
	</clipPath>
	<g clip-path="url(#SVGID_61_)">
		<defs>
			<rect id="SVGID_8_" x="10" y="10" width="155" height="154"/>
		</defs>
		<clipPath id="SVGID_62_">
			<use xlink:href="#SVGID_8_"  overflow="visible"/>
		</clipPath>
		
			<rect x="12.898" y="58.56" transform="matrix(0.7431 0.6691 -0.6691 0.7431 65.0603 -30.9064)" clip-path="url(#SVGID_62_)" fill-rule="evenodd" clip-rule="evenodd" width="119.778" height="21.462"/>
	</g>
</g>
<g>
	<defs>
		<path id="SVGID_5_" d="M66.696,70.592l-7.715,6.093l-7.238-6.093l7.238-10.296c-1.819-1.124-4.771-2.474-4.771-2.474l-7.529,4.736
			c0,0-2.967-12.301-2.545-13.463c0.885-2.442,0-1.703,0-1.703L40.6,48.228c-1.226,0.289-3.677,0.868-3.677,0.868l-8.695-13.49"/>
	</defs>
	<clipPath id="SVGID_63_">
		<use xlink:href="#SVGID_5_"  overflow="visible"/>
	</clipPath>
	<g clip-path="url(#SVGID_63_)">
		<defs>
			<rect id="SVGID_6_" x="10" y="10" width="155" height="154"/>
		</defs>
		<clipPath id="SVGID_64_">
			<use xlink:href="#SVGID_6_"  overflow="visible"/>
		</clipPath>
		
			<rect x="23.229" y="30.605" clip-path="url(#SVGID_64_)" fill-rule="evenodd" clip-rule="evenodd" width="48.468" height="51.08"/>
	</g>
</g>
<g>
	<defs>
		
			<ellipse id="SVGID_3_" transform="matrix(0.7986 0.6018 -0.6018 0.7986 98.6774 -53.9771)" cx="130" cy="120.471" rx="14.5" ry="15"/>
	</defs>
	<clipPath id="SVGID_65_">
		<use xlink:href="#SVGID_3_"  overflow="visible"/>
	</clipPath>
	<g clip-path="url(#SVGID_65_)">
		<defs>
			<rect id="SVGID_4_" x="10" y="10" width="155" height="154"/>
		</defs>
		<clipPath id="SVGID_66_">
			<use xlink:href="#SVGID_4_"  overflow="visible"/>
		</clipPath>
		
			<rect x="110" y="100.972" transform="matrix(-0.6018 0.7986 -0.7986 -0.6018 304.4488 89.1498)" clip-path="url(#SVGID_66_)" fill-rule="evenodd" clip-rule="evenodd" fill="#D4F4A9" width="40" height="39"/>
	</g>
</g>
<g>
	<defs>
		
			<ellipse id="SVGID_1_" transform="matrix(0.7431 -0.6691 0.6691 0.7431 -69.2895 60.44)" cx="44.08" cy="120.471" rx="14.5" ry="15"/>
	</defs>
	<clipPath id="SVGID_67_">
		<use xlink:href="#SVGID_1_"  overflow="visible"/>
	</clipPath>
	<g clip-path="url(#SVGID_67_)">
		<defs>
			<rect id="SVGID_2_" x="10" y="10" width="155" height="154"/>
		</defs>
		<clipPath id="SVGID_68_">
			<use xlink:href="#SVGID_2_"  overflow="visible"/>
		</clipPath>
		
			<rect x="24.08" y="100.972" transform="matrix(0.6691 0.7432 -0.7432 0.6691 104.1142 7.1036)" clip-path="url(#SVGID_68_)" fill-rule="evenodd" clip-rule="evenodd" fill="#D4F4A9" width="40.001" height="39"/>
	</g>
</g>
</svg>
